<svg  width="16" height="17" viewBox="0 0 16 17" fill="none" xmlns="http://www.w3.org/2000/svg">
<path fill-rule="evenodd" clip-rule="evenodd" d="M7.31693 2.9337C5.87185 1.48863 3.52892 1.48863 2.08385 2.9337C0.638771 4.37878 0.638772 6.72171 2.08385 8.16679L7.95804 14.041L8.00004 13.999L8.04209 14.041L13.9163 8.16684C15.3614 6.72176 15.3614 4.37883 13.9163 2.93375C12.4712 1.48868 10.1283 1.48868 8.68319 2.93375L8.47149 3.14545C8.21114 3.4058 7.78903 3.4058 7.52868 3.14545L7.31693 2.9337ZM8.00004 14.9418L8.04209 14.9838L14.3877 8.63824C16.0931 6.93282 16.0931 4.16777 14.3877 2.46235C12.6823 0.756922 9.91721 0.756924 8.21179 2.46235L8.00009 2.67405L7.78834 2.4623C6.08291 0.756871 3.31787 0.756872 1.61244 2.4623C-0.0929831 4.16772 -0.0929815 6.93277 1.61244 8.63819L7.95804 14.9838L8.00004 14.9418Z" fill="#14142B"/>
</svg>
